<svg width="32" height="35" viewBox="0 0 32 35" fill="none" xmlns="http://www.w3.org/2000/svg">
<path d="M23 6.99531L29.5759 0.418766C30.4704 -0.475816 32 0.157766 32 1.423V18.9964C31.9999 13.2963 27.4869 9.82971 23 6.99531Z" fill="#FF7236"/>
<path d="M32 18.9966C32 27.834 24.8366 34.998 16.0001 34.998C7.16368 34.998 0.000244141 27.8339 0.000244141 18.9966C0.000244141 10.1593 7.16357 3.99524 16.0001 3.99524C24.8367 3.99524 32 10.1592 32 18.9966Z" fill="#FFAA50"/>
<path d="M9.00001 18.9964C9.00001 11.2947 13.4219 5.62687 19.3103 4.29649C18.2417 4.1004 17.1354 3.99505 16 3.99505C13.0556 3.99505 10.3064 4.6923 7.93662 5.93182L2.4241 0.418766C1.5296 -0.475816 0 0.157766 0 1.423V18.9964C0 18.6357 0 18.6377 0 18.9964C0 27.8338 7.16344 34.9978 15.9999 34.9978C17.1354 34.9978 18.2417 34.8756 19.3102 34.6508C13.4219 33.1252 9.00001 26.6981 9.00001 18.9964Z" fill="#FF7236"/>
<path d="M12.4999 28.9973C14.4329 28.9973 15.9999 27.6541 15.9999 25.9971C15.9999 24.3401 14.4329 22.9968 12.4999 22.9968C10.567 22.9968 9 24.3401 9 25.9971C9 27.6541 10.567 28.9973 12.4999 28.9973Z" fill="#FFFDFB"/>
<path d="M19.5002 28.9973C21.4331 28.9973 23.0001 27.6541 23.0001 25.9971C23.0001 24.3401 21.4331 22.9968 19.5002 22.9968C17.5672 22.9968 16.0002 24.3401 16.0002 25.9971C16.0002 27.6541 17.5672 28.9973 19.5002 28.9973Z" fill="#FFFDFB"/>
<path d="M16.0003 25.9977C17.1048 25.9977 18.0003 25.1022 18.0003 23.9975C18.0003 22.8928 17.1048 21.9973 16.0003 21.9973C14.8957 21.9973 14.0002 22.8928 14.0002 23.9975C14.0002 25.1022 14.8957 25.9977 16.0003 25.9977Z" fill="#FF913C"/>
<path d="M10.0002 19.9965C9.44744 19.9965 9.00024 19.5487 9.00024 18.9964V17.9964C9.00024 17.4441 9.44755 16.9963 10.0002 16.9963C10.5528 16.9963 11.0001 17.4441 11.0001 17.9964V18.9964C11.0001 19.5487 10.5528 19.9965 10.0002 19.9965Z" fill="#1A212F"/>
<path d="M22 19.9965C21.4472 19.9965 21 19.5487 21 18.9964V17.9964C21 17.4441 21.4473 16.9963 22 16.9963C22.5527 16.9963 22.9999 17.4441 22.9999 17.9964V18.9964C23 19.5487 22.5527 19.9965 22 19.9965Z" fill="#1A212F"/>
</svg>
